<svg xmlns="http://www.w3.org/2000/svg" viewBox="0 0 501.43 139.08"><defs><style>.cls-1{fill:#00e676;}.cls-1,.cls-2{fill-rule:evenodd;}.cls-2,.cls-5{fill:#fff;}.cls-2,.cls-3,.cls-4,.cls-5{stroke:#000;stroke-miterlimit:10;}.cls-3{fill:#fefefe;}.cls-4{fill:#4ecb5b;stroke-width:0.5px;}.cls-5{stroke-width:0.75px;}</style></defs><g id="Layer_2" data-name="Layer 2"><g id="Layer_1-2" data-name="Layer 1"><path class="cls-1" d="M36.19,117.9l2.2,1.1a57.5,57.5,0,0,0,29.68,8.08A59,59,0,1,0,9.63,68.63a60.11,60.11,0,0,0,8.8,30.82l1.47,2.2L14,123.3Z"/><path class="cls-2" d="M116,20.31A66,66,0,0,0,68.55.5,67,67,0,0,0,1.44,67.38V68a70.91,70.91,0,0,0,8.81,33.38L.71,136.25l35.55-9.17a65.43,65.43,0,0,0,32.07,8.07,67.47,67.47,0,0,0,67.1-67.51A66.62,66.62,0,0,0,116,20.31M68.55,123.77h0a54.44,54.44,0,0,1-28.22-7.7l-2.2-1.1L17,120.47l5.51-20.91L21,97.36a55.66,55.66,0,1,1,76.68,18,53.42,53.42,0,0,1-28.95,8.43M101,83.05l-4-1.83s-5.87-2.57-9.54-4.41c-.36,0-.73-.36-1.1-.36a5.27,5.27,0,0,0-2.56.73s-.37.37-5.51,6.24a2,2,0,0,1-1.83,1.1H76a2.79,2.79,0,0,1-1.47-.74l-1.83-.73a35.7,35.7,0,0,1-10.64-7c-.73-.73-1.83-1.47-2.57-2.2a40.94,40.94,0,0,1-7-8.81l-.37-.73a5.77,5.77,0,0,1-.73-1.47A2.68,2.68,0,0,1,51.82,61s1.46-1.84,2.56-2.94,1.11-1.83,1.84-2.57A4.51,4.51,0,0,0,57,51.86a144.2,144.2,0,0,0-5.87-13.94,4.25,4.25,0,0,0-2.57-1.83h-4c-.73,0-1.47.37-2.2.37l-.37.36c-.73.37-1.47,1.1-2.2,1.47s-1.1,1.47-1.83,2.2a18.66,18.66,0,0,0-4,11.37,21.7,21.7,0,0,0,1.83,8.44L36,61.4A60.82,60.82,0,0,0,49.62,80.11l1.46,1.47A22.68,22.68,0,0,1,54,84.52,65.58,65.58,0,0,0,80.4,98.46c1.1.37,2.57.37,3.67.73h3.66a13.56,13.56,0,0,0,5.51-1.46,16.74,16.74,0,0,0,2.57-1.47l.73-.74c.73-.73,1.47-1.1,2.2-1.83a9.7,9.7,0,0,0,1.84-2.2A21.27,21.27,0,0,0,102,86.35V83.78a4.78,4.78,0,0,0-1.1-.73"/><path class="cls-3" d="M267.93,26.34c-1-2.78-1-2.79-3.95-2.79a6,6,0,0,1-1,0c-1.46-.26-2.16.32-2.65,1.76-1.28,3.78-2.78,7.5-4.19,11.24-1.51,4-3,8.07-4.54,12.07-.46,1.19-.19,1.47,1,1.37a23.2,23.2,0,0,1,3.12,0c.85.06,1.35-.16,1.59-1.07.33-1.24.87-2.42,1.23-3.65A1.42,1.42,0,0,1,260.16,44,62.42,62.42,0,0,0,267,44c1.46-.11,2,.48,2.33,1.73s.56,3.15,1.5,3.94,2.86.12,4.33.29,1.41-.46,1-1.56Q272,37.39,267.93,26.34Zm-1.71,13.32h-5.7c.24-.75.4-1.31.6-1.86.89-2.51,1.78-5,2.78-7.82C265,33.12,266,36,267,38.85,267.24,39.61,266.8,39.66,266.22,39.66Z"/><path class="cls-3" d="M199.13,35.4c-.34-3-2.46-4.77-5.52-5a7.8,7.8,0,0,0-6.86,2.7c0-1.87,0-3.75,0-5.62,0-1.27.57-3-.29-3.67s-2.36-.12-3.59-.24c-1.07-.1-1.29.32-1.29,1.33,0,7.37,0,14.75,0,22.13,0,3,0,3,2.91,3,2.25,0,2.22,0,2.26-2.28.07-3.32-.26-6.64.23-9.94.29-2,1.28-3,3-3.19,2.68-.37,4.05.8,4.14,3.68.09,2.58,0,5.16,0,7.73,0,4.26,0,4.26,4.24,4h.14c.56,0,.83-.17.83-.76C199.26,44.6,199.64,40,199.13,35.4Z"/><path class="cls-3" d="M219.43,43.64c0-2.53,0-5.06,0-7.58,0-2.77-1-4.25-3.69-5.08a14.27,14.27,0,0,0-9.75.3,5.93,5.93,0,0,0-3.73,4.49c-.13.64,0,.9.72.87,1.18,0,2.38,0,3.56,0a.91.91,0,0,0,1-.74c.72-2,4.16-2.9,5.88-1.5a2,2,0,0,1,.65,1c.52,1.68-.22,2.62-2.45,3s-4.45.42-6.56,1.22c-2.5.94-3.64,2.78-3.46,5.57A5.1,5.1,0,0,0,205.72,50a9.69,9.69,0,0,0,8.52-1.75c.56.46.11,1.62,1.31,1.54,1.43-.08,2.87,0,4.42,0A18.87,18.87,0,0,1,219.43,43.64Zm-10.57,3.15a2.1,2.1,0,0,1-2-1.87,2.38,2.38,0,0,1,1.31-2.71c1.76-.87,3.75-.76,5.6-1.28.73-.21.21.93.43,1.3C214.13,45.82,212.2,47.43,208.86,46.79Z"/><path class="cls-3" d="M231.09,34.34c1.4.06,2-.19,1.94-1.81-.07-1.32-.36-1.93-1.75-1.7-.33.05-.69,0-1,0-.88.11-1.1-.31-1.07-1.12.06-1.18,0-2.37,0-3.56,0-.85-.28-1.07-1.11-1.09-4.21-.13-4.21-.15-4.21,4,0,.1,0,.2,0,.3.22,1.19-.3,1.56-1.45,1.46-.53,0-1.4-.36-1.57.36a5.57,5.57,0,0,0,0,2.78c.21.65,1.15.31,1.75.28.93-.05,1.31.2,1.26,1.22-.08,1.68,0,3.36,0,5h0c0,1.74-.05,3.47,0,5.2a3.94,3.94,0,0,0,3.76,4.18,12.67,12.67,0,0,0,2.22.13c3.86-.08,2.93.33,3.09-3,0-.9-.16-1.17-1.15-1.08-2.2.19-2.62-.28-2.63-2.47q0-3.63,0-7.27C229.22,34,229,34.25,231.09,34.34Z"/><path class="cls-3" d="M247.91,39.26a22.18,22.18,0,0,0-4.14-1.17A11.15,11.15,0,0,1,240.25,37a1.54,1.54,0,0,1-.53-2.47c1.32-1.37,5.13-.79,5.8,1a1.07,1.07,0,0,0,1.29.81c.5,0,1,0,1.49,0,.77-.07,2,.38,2.21-.21.38-.87-.24-1.91-.78-2.75a5.83,5.83,0,0,0-2.17-2,11.33,11.33,0,0,0-5.31-1.1,12.61,12.61,0,0,0-4.66.76,5.49,5.49,0,0,0-3.53,5.34c0,2.06,1.18,3.48,3.6,4.37a21.76,21.76,0,0,0,2.13.63,30.09,30.09,0,0,1,4.85,1.36,1.84,1.84,0,0,1,.68,3.2c-1.81,1.73-5.74.9-6.5-1.44-.25-.75-.56-.93-1.23-.89-.5,0-1,0-1.48,0-.78.06-1.91-.39-2.24.24-.44.87.13,1.91.63,2.78a7.26,7.26,0,0,0,.87,1.19c3,3.24,11.18,3.35,14.24.21A5.28,5.28,0,0,0,247.91,39.26Z"/><path class="cls-3" d="M311.89,30.81c-3.13-1.08-6.16-.75-8.49,2.1-.47-2.17-.47-2.17-2.78-2.17a6.61,6.61,0,0,1-.89,0c-1.14-.17-1.5.23-1.49,1.43.06,6.83,0,13.66,0,20.49,0,1.27-.57,3,.26,3.67s2.46.13,3.73.25c1,.1,1.24-.34,1.22-1.26,0-2.47,0-4.93,0-7.72a7.81,7.81,0,0,0,13.36-2.86,13.36,13.36,0,0,0,.46-6.87C316.69,34.58,315.12,31.92,311.89,30.81Zm-.42,13.54a3.72,3.72,0,0,1-3.79,2.09,4,4,0,0,1-3.7-2.52,7.13,7.13,0,0,1-.65-3.51,7.72,7.72,0,0,1,.61-3.58,4,4,0,0,1,3.66-2.57,3.94,3.94,0,0,1,4,2.36A8.65,8.65,0,0,1,311.47,44.35Z"/><path class="cls-3" d="M282.61,33c-.32-2.25-.32-2.25-2.55-2.25a7.87,7.87,0,0,1-1.19,0c-1.13-.17-1.41.29-1.4,1.4,0,6.88,0,13.76,0,20.65,0,1.22-.57,2.88.26,3.54s2.37.13,3.6.25,1.45-.25,1.41-1.38c-.1-2.44,0-4.89,0-7.54a7.88,7.88,0,0,0,13.57-3.53,13.41,13.41,0,0,0-.49-8.73A7.8,7.8,0,0,0,282.61,33Zm8.33,10.87A3.85,3.85,0,0,1,287,46.44a4.05,4.05,0,0,1-3.89-2.68,10,10,0,0,1-.07-6.68,4.07,4.07,0,0,1,3.79-2.82,4,4,0,0,1,4,2.54A8.93,8.93,0,0,1,290.94,43.86Z"/><path class="cls-3" d="M176,23.54c-1.09-.14-1.39.33-1.62,1.34-1.23,5.5-2.56,11-3.87,16.47-.43-.32-.42-.79-.53-1.22q-1.56-6.33-3.14-12.66c-.33-1.28-.19-3.11-1.15-3.7s-2.69-.14-4.06-.24c-.86-.06-1.22.23-1.42,1.06-.66,2.84-1.4,5.66-2.12,8.49s-1.37,5.37-2.06,8.06c-1.51-5.52-2.81-11-4-16.5-.19-.83-.46-1.15-1.34-1.11-1.48.08-3,0-4.69,0,2,7.47,3.89,14.77,5.83,22.07.38,1.42.25,3.43,1.34,4.08s3,.17,4.5.28c.9.07,1.2-.33,1.38-1.12.57-2.5,1.18-5,1.79-7.49.73-3,1.46-5.93,2.29-9.28.22.63.32.85.38,1.08q1.56,6.33,3.13,12.67c.34,1.33.34,3.1,1.2,3.86s2.76.13,4.17.28c1.06.11,1.43-.31,1.69-1.3,1.82-7,3.72-13.94,5.58-20.91.35-1.33,1.34-3.21.81-3.9C179.35,22.93,177.42,23.71,176,23.54Z"/><path class="cls-4" d="M144.69,83.75c0-18.25,11-29.38,26-29.38a21.93,21.93,0,0,1,16.32,7L183.05,66a16,16,0,0,0-12.19-5.34c-11.4,0-18.73,8.76-18.73,22.86s6.73,23.15,18.8,23.15c4.06,0,8-1.22,10.2-3.33V88.64h-12v-6H187.7v23.8c-3.64,3.79-9.84,6.57-17.45,6.57C155.32,113,144.69,102.13,144.69,83.75Z"/><path class="cls-4" d="M197.41,91.1c0-13.65,9.2-22,18.85-22C227,69.05,233,76.72,233,88.72a23,23,0,0,1-.33,4H204.42c.51,8.88,5.94,14.64,13.93,14.64A18.3,18.3,0,0,0,228.78,104l2.54,4.65A24.58,24.58,0,0,1,217.48,113C206.31,113,197.41,104.87,197.41,91.1Zm29.31-3.43c0-8.4-3.78-13-10.34-13-5.89,0-11.16,4.73-12,13Z"/><path class="cls-4" d="M243.3,70.08h5.86l.6,6H250c4-3.93,8.3-7.08,14.06-7.08,8.83,0,12.8,5.7,12.8,16.39V112h-7.1V86.36c0-7.81-2.36-11.15-7.9-11.15-4.29,0-7.26,2.18-11.46,6.43V112h-7.1Z"/><path class="cls-4" d="M287.36,91.1c0-13.65,9.2-22,18.85-22,10.69,0,16.73,7.67,16.73,19.67a23,23,0,0,1-.33,4H294.37c.51,8.88,5.94,14.64,13.93,14.64A18.3,18.3,0,0,0,318.73,104l2.55,4.65A24.64,24.64,0,0,1,307.43,113C296.26,113,287.36,104.87,287.36,91.1Zm29.31-3.43c0-8.4-3.78-13-10.34-13-5.89,0-11.16,4.73-12,13Z"/><path class="cls-4" d="M333.25,70.08h5.86l.6,7.64H340c2.92-5.32,7.2-8.67,11.92-8.67a9.68,9.68,0,0,1,4.47.86L355,76.13a11.86,11.86,0,0,0-4.07-.69c-3.54,0-7.77,2.55-10.6,9.64V112h-7.1Z"/><path class="cls-4" d="M358.51,101.12c0-9.13,7.88-13.7,25.75-15.64,0-5.4-1.81-10.59-8.65-10.59-4.85,0-9.22,2.3-12.51,4.49l-2.77-4.86c3.85-2.53,9.74-5.47,16.46-5.47,10.23,0,14.56,6.8,14.56,17.23V112h-5.86l-.6-5h-.23c-4,3.32-8.66,6.05-13.87,6.05C363.78,113,358.51,108.68,358.51,101.12Zm25.75.65V90.13c-14.05,1.69-18.8,5.13-18.8,10.49,0,4.76,3.23,6.7,7.35,6.7S380.2,105.35,384.26,101.77Z"/><path class="cls-4" d="M404.61,99V75.86h-6.24V70.49l6.56-.41.85-11.76h5.92V70.08h11.36v5.78H411.7v23.3c0,5.13,1.66,8.1,6.49,8.1a13.81,13.81,0,0,0,4.77-1.13l1.37,5.36a25.5,25.5,0,0,1-7.78,1.55C407.63,113,404.61,107.38,404.61,99Z"/><path class="cls-4" d="M428.2,91.1c0-14,9.15-22,19.42-22s19.43,8.06,19.43,22S457.9,113,447.62,113,428.2,105,428.2,91.1Zm31.52,0c0-9.61-4.89-16.15-12.1-16.15s-12.09,6.54-12.09,16.15,4.88,16,12.09,16S459.72,100.7,459.72,91.1Z"/><path class="cls-4" d="M478.05,70.08h5.86l.6,7.64h.24c2.92-5.32,7.2-8.67,11.92-8.67a9.68,9.68,0,0,1,4.47.86l-1.32,6.22a11.82,11.82,0,0,0-4.07-.69c-3.54,0-7.77,2.55-10.6,9.64V112h-7.1Z"/><path class="cls-5" d="M424.35,117.52H427v18.56h9.08v2.24H424.35Z"/><path class="cls-5" d="M439,118.07a1.8,1.8,0,1,1,1.8,1.68A1.7,1.7,0,0,1,439,118.07Zm.48,4.85h2.61v15.4h-2.61Z"/><path class="cls-5" d="M447.31,122.92h2.15l.22,2.22h.09c1.46-1.45,3.05-2.6,5.16-2.6,3.25,0,4.71,2.09,4.71,6v9.76H457V128.9c0-2.87-.87-4.1-2.9-4.1-1.58,0-2.67.8-4.22,2.37v11.15h-2.6Z"/><path class="cls-5" d="M464.65,115.74h2.56V131h.08l6.58-8.11h2.89l-5.16,6.19,5.84,9.21h-2.85l-4.49-7.4-2.89,3.36v4h-2.56Z"/><path class="cls-5" d="M478.63,136.56l1.29-1.71a6.94,6.94,0,0,0,4.54,1.82c2,0,3-1.08,3-2.39,0-1.59-1.82-2.29-3.52-2.92-2.16-.79-4.6-1.85-4.6-4.45s2-4.37,5.32-4.37a7.81,7.81,0,0,1,4.79,1.73l-1.25,1.67a5.76,5.76,0,0,0-3.51-1.37c-1.94,0-2.84,1-2.84,2.21,0,1.46,1.67,2,3.42,2.67,2.22.84,4.7,1.74,4.7,4.67,0,2.5-2,4.58-5.62,4.58A9.26,9.26,0,0,1,478.63,136.56Z"/></g></g></svg>